<svg xmlns="http://www.w3.org/2000/svg" width="1200" height="640" viewBox="0 0 1200 640" fill="none">
  <rect width="1200" height="640" rx="32" fill="#F6F3FF"/>
  <rect x="100" y="180" width="220" height="220" rx="24" fill="#ffffff" stroke="#7B61FF" stroke-width="4"/>
  <text x="210" y="240" text-anchor="middle" font-family="Arial" font-size="28" font-weight="700" fill="#534AB7">Users</text>
  <text x="210" y="280" text-anchor="middle" font-family="Arial" font-size="22" fill="#534AB7">Web / Mobile</text>
  <path d="M320 290H420" stroke="#7B61FF" stroke-width="8" stroke-linecap="round"/>
  <path d="M780 290H880" stroke="#7B61FF" stroke-width="8" stroke-linecap="round"/>
  <path d="M600 370V470" stroke="#7B61FF" stroke-width="8" stroke-linecap="round"/>
  <path d="M600 150V95" stroke="#7B61FF" stroke-width="8" stroke-linecap="round"/>
  <path d="M540 120C540 83 566 56 600 56C620 38 650 30 680 37C709 25 750 36 764 67C798 68 826 95 826 130C826 168 795 198 756 198H558C516 198 482 166 482 126C482 92 507 64 540 60" fill="#EEEDFE" stroke="#7B61FF" stroke-width="4"/>
  <text x="654" y="118" text-anchor="middle" font-family="Arial" font-size="30" font-weight="700" fill="#534AB7">Cloud Platform</text>
  <rect x="420" y="180" width="360" height="190" rx="24" fill="#ffffff" stroke="#7B61FF" stroke-width="4"/>
  <text x="600" y="235" text-anchor="middle" font-family="Arial" font-size="30" font-weight="700" fill="#534AB7">VPC / Services</text>
  <rect x="468" y="270" width="120" height="56" rx="14" fill="#EEEDFE"/>
  <rect x="600" y="270" width="120" height="56" rx="14" fill="#EEEDFE"/>
  <text x="528" y="304" text-anchor="middle" font-family="Arial" font-size="20" font-weight="700" fill="#534AB7">Compute</text>
  <text x="660" y="304" text-anchor="middle" font-family="Arial" font-size="20" font-weight="700" fill="#534AB7">Data</text>
  <rect x="410" y="470" width="380" height="80" rx="18" fill="#ffffff" stroke="#7B61FF" stroke-width="3"/>
  <text x="600" y="520" text-anchor="middle" font-family="Arial" font-size="24" font-weight="700" fill="#534AB7">Core message: ออกแบบแยก public/private และคุมต้นทุนด้วย tagging</text>
  <rect x="880" y="180" width="220" height="220" rx="24" fill="#ffffff" stroke="#0FA66B" stroke-width="4"/>
  <text x="990" y="240" text-anchor="middle" font-family="Arial" font-size="28" font-weight="700" fill="#085041">Ops</text>
  <text x="990" y="280" text-anchor="middle" font-family="Arial" font-size="22" fill="#085041">HA / DR / FinOps</text>
</svg>
