<svg xmlns="http://www.w3.org/2000/svg" width="1200" height="640" viewBox="0 0 1200 640" fill="none">
  <rect width="1200" height="640" rx="32" fill="#F4FBF7"/>
  <rect x="80" y="120" width="240" height="220" rx="20" fill="#E6F9F2" stroke="#0FA66B" stroke-width="3"/>
  <text x="200" y="175" text-anchor="middle" font-family="Arial" font-size="28" font-weight="700" fill="#085041">Users</text>
  <text x="200" y="215" text-anchor="middle" font-family="Arial" font-size="20" fill="#085041">Office Apps</text>
  <text x="200" y="245" text-anchor="middle" font-family="Arial" font-size="20" fill="#085041">ERP / Web / Files</text>
  <rect x="390" y="80" width="420" height="300" rx="24" fill="#ffffff" stroke="#0FA66B" stroke-width="4"/>
  <text x="600" y="130" text-anchor="middle" font-family="Arial" font-size="32" font-weight="700" fill="#085041">Virtualization Cluster</text>
  <rect x="445" y="170" width="130" height="90" rx="16" fill="#E6F9F2"/>
  <rect x="535" y="205" width="95" height="18" rx="9" fill="#0FA66B" fill-opacity="0.25"/>
  <rect x="615" y="170" width="130" height="90" rx="16" fill="#E6F9F2"/>
  <rect x="705" y="205" width="95" height="18" rx="9" fill="#0FA66B" fill-opacity="0.25"/>
  <rect x="500" y="285" width="200" height="44" rx="14" fill="#D8F3E6" stroke="#0FA66B"/>
  <text x="600" y="314" text-anchor="middle" font-family="Arial" font-size="22" font-weight="700" fill="#085041">Shared Storage</text>
  <rect x="880" y="120" width="240" height="220" rx="20" fill="#E8F1FF" stroke="#1A6EFF" stroke-width="3"/>
  <text x="1000" y="175" text-anchor="middle" font-family="Arial" font-size="28" font-weight="700" fill="#0C447C">Operations</text>
  <text x="1000" y="215" text-anchor="middle" font-family="Arial" font-size="20" fill="#0C447C">Backup / DR</text>
  <text x="1000" y="245" text-anchor="middle" font-family="Arial" font-size="20" fill="#0C447C">Monitoring / HA</text>
  <path d="M320 230H390" stroke="#0FA66B" stroke-width="8" stroke-linecap="round"/>
  <path d="M810 230H880" stroke="#0FA66B" stroke-width="8" stroke-linecap="round"/>
  <path d="M600 380V470" stroke="#0FA66B" stroke-width="8" stroke-linecap="round"/>
  <rect x="340" y="470" width="520" height="90" rx="20" fill="#ffffff" stroke="#0FA66B" stroke-width="3"/>
  <text x="600" y="520" text-anchor="middle" font-family="Arial" font-size="24" font-weight="700" fill="#085041">Core message: ลดจำนวนเซิร์ฟเวอร์ เพิ่ม HA และบริหารง่ายขึ้น</text>
</svg>
