<svg xmlns="http://www.w3.org/2000/svg" width="1200" height="640" viewBox="0 0 1200 640" fill="none">
  <rect width="1200" height="640" rx="32" fill="#FFF8EF"/>
  <circle cx="180" cy="320" r="95" fill="#FFF3DC" stroke="#F08C00" stroke-width="4"/>
  <text x="180" y="310" text-anchor="middle" font-family="Arial" font-size="28" font-weight="700" fill="#7A4800">Branch</text>
  <text x="180" y="345" text-anchor="middle" font-family="Arial" font-size="22" fill="#7A4800">Users / Wi-Fi</text>
  <rect x="420" y="180" width="360" height="280" rx="24" fill="#ffffff" stroke="#F08C00" stroke-width="4"/>
  <text x="600" y="235" text-anchor="middle" font-family="Arial" font-size="30" font-weight="700" fill="#7A4800">Core Network</text>
  <rect x="485" y="275" width="110" height="70" rx="14" fill="#FFF3DC"/>
  <rect x="605" y="275" width="110" height="70" rx="14" fill="#FFF3DC"/>
  <text x="540" y="319" text-anchor="middle" font-family="Arial" font-size="22" font-weight="700" fill="#7A4800">L2</text>
  <text x="660" y="319" text-anchor="middle" font-family="Arial" font-size="22" font-weight="700" fill="#7A4800">L3</text>
  <rect x="495" y="365" width="210" height="42" rx="12" fill="#FFE8C2" stroke="#F08C00"/>
  <text x="600" y="392" text-anchor="middle" font-family="Arial" font-size="20" font-weight="700" fill="#7A4800">ACL / QoS / LB</text>
  <circle cx="1020" cy="320" r="95" fill="#EEEDFE" stroke="#7B61FF" stroke-width="4"/>
  <text x="1020" y="310" text-anchor="middle" font-family="Arial" font-size="28" font-weight="700" fill="#534AB7">Cloud</text>
  <text x="1020" y="345" text-anchor="middle" font-family="Arial" font-size="22" fill="#534AB7">Apps / CDN</text>
  <path d="M275 320H420" stroke="#F08C00" stroke-width="8" stroke-linecap="round"/>
  <path d="M780 320H925" stroke="#F08C00" stroke-width="8" stroke-linecap="round"/>
  <rect x="320" y="500" width="560" height="78" rx="18" fill="#ffffff" stroke="#F08C00" stroke-width="3"/>
  <text x="600" y="548" text-anchor="middle" font-family="Arial" font-size="24" font-weight="700" fill="#7A4800">Core message: แยก L2/L3 ชัดเจน ลด Broadcast และเพิ่มความเสถียร</text>
</svg>
