<svg xmlns="http://www.w3.org/2000/svg" width="1200" height="640" viewBox="0 0 1200 640" fill="none">
  <rect width="1200" height="640" rx="32" fill="#FFF3F3"/>
  <rect x="80" y="170" width="220" height="260" rx="24" fill="#ffffff" stroke="#E03B3B" stroke-width="4"/>
  <text x="190" y="230" text-anchor="middle" font-family="Arial" font-size="28" font-weight="700" fill="#791F1F">Identity</text>
  <text x="190" y="270" text-anchor="middle" font-family="Arial" font-size="22" fill="#791F1F">MFA / SSO / PAM</text>
  <rect x="350" y="110" width="500" height="380" rx="28" fill="#ffffff" stroke="#E03B3B" stroke-width="5"/>
  <path d="M600 150L740 210V300C740 385 680 448 600 470C520 448 460 385 460 300V210L600 150Z" fill="#FFECEC" stroke="#E03B3B" stroke-width="5"/>
  <path d="M548 302L586 340L654 256" stroke="#E03B3B" stroke-width="14" stroke-linecap="round" stroke-linejoin="round"/>
  <text x="600" y="220" text-anchor="middle" font-family="Arial" font-size="30" font-weight="700" fill="#791F1F">Zero Trust</text>
  <rect x="890" y="170" width="220" height="260" rx="24" fill="#ffffff" stroke="#F08C00" stroke-width="4"/>
  <text x="1000" y="230" text-anchor="middle" font-family="Arial" font-size="28" font-weight="700" fill="#7A4800">Response</text>
  <text x="1000" y="270" text-anchor="middle" font-family="Arial" font-size="22" fill="#7A4800">EDR / SIEM / SOAR</text>
  <path d="M300 300H350" stroke="#E03B3B" stroke-width="8" stroke-linecap="round"/>
  <path d="M850 300H890" stroke="#E03B3B" stroke-width="8" stroke-linecap="round"/>
  <rect x="310" y="520" width="580" height="70" rx="18" fill="#ffffff" stroke="#E03B3B" stroke-width="3"/>
  <text x="600" y="563" text-anchor="middle" font-family="Arial" font-size="24" font-weight="700" fill="#791F1F">Core message: ป้องกันหลายชั้น ตั้งแต่ identity, endpoint ถึง monitoring</text>
</svg>
